<svg width="115" height="125" viewBox="0 0 115 125" fill="none" xmlns="http://www.w3.org/2000/svg">
<path d="M96 96H0V0H96V96Z" stroke="#E5E7EB"/>
<g clip-path="url(#clip0_69_1892)">
<mask id="mask0_69_1892" style="mask-type:luminance" maskUnits="userSpaceOnUse" x="0" y="0" width="96" height="96">
<path d="M96 0H0V96H96V0Z" fill="white"/>
</mask>
<g mask="url(#mask0_69_1892)">
<path d="M71.4493 85.7285C60.5282 118.426 31.3979 128.51 15.9961 87.9083C13.8713 82.3266 19.4089 80.2569 23.2842 77.7908C25.9374 76.1064 27.3355 74.6532 27.1704 73.145C26.3998 66.0551 23.108 46.3046 23.108 46.3046L22.7777 45.6661C22.7777 45.6661 22.8548 45.4899 22.5355 45.7982C22.2053 46.1285 21.4456 49.5633 18.4621 49.5633C15.7649 49.5633 13.0456 48.3633 11.7465 40.0624C11.2511 37.0569 11.5154 29.1743 14.8621 27.7431C16.2383 27.1597 17.5043 26.9505 18.7374 27.6551C19.9814 28.3597 17.3062 25.2331 31.0676 13.7835C40.0071 6.31929 54.1319 5.22938 59.8346 6.49544C65.5374 7.76149 71.2291 10.5468 73.7502 16.4587C76.8108 23.6147 70.8988 29.0422 72.2089 45.3578C71.9667 51.2587 72.297 64.2055 56.0695 68.5431C52.9869 69.3688 53.9447 73.8716 58.5686 74.9725C65.9447 77.2844 71.4493 82.9321 71.4493 85.7505" fill="white"/>
<path fill-rule="evenodd" clip-rule="evenodd" d="M71.4495 34.9209L71.4605 34.7668C71.9118 30.7594 72.3632 26.8732 74.444 23.3833C75.1596 23.8677 75.0715 24.4842 74.8513 25.0567C72.6605 30.6934 72.8696 36.5503 73.0678 42.4072L73.1118 43.9484C73.343 51.2585 71.5155 57.9081 66.6495 63.4897C64.9541 65.4273 62.7082 66.7705 60.4293 67.9264C58.0733 69.1374 57.5779 70.1393 58.3155 72.7264L58.4036 73.0127C58.5577 73.442 58.7118 73.8824 58.2935 74.3117C57.7981 74.8182 57.2476 74.675 56.6641 74.5099L56.5981 74.4989C51.1396 72.9705 46.0213 70.4188 41.5155 66.9796C40.855 66.4952 40.3265 65.8457 39.8091 65.2072L39.7761 65.1631C39.5008 64.8328 39.4458 64.3044 39.8311 64.0182C40.1944 63.7429 40.4697 63.9631 40.7889 64.2163L40.899 64.3154C43.3029 66.266 46.2206 67.4782 49.299 67.8053C50.7742 67.9595 52.2274 67.9044 53.7027 67.8494C54.5174 67.8163 55.332 67.7833 56.1577 67.7943C57.2807 67.7943 58.2164 67.2769 59.0972 66.7815L59.4054 66.6053C62.466 64.8989 65.3834 62.9943 67.354 59.9228C69.1265 57.1705 70.2054 54.176 70.833 51.0163C71.6256 47.042 71.5596 43.0127 71.4935 38.9283C71.4605 37.6072 71.4385 36.264 71.4385 34.9209H71.4495ZM16.0293 26.62C18.4403 26.4328 19.7724 27.853 20.9063 29.5154C22.2503 31.5465 23.0953 33.8664 23.3724 36.2861C23.4274 36.6934 23.4825 37.1228 23.2403 37.5301C22.7449 37.5961 22.7008 37.1998 22.6898 36.9136C22.6348 34.6347 21.6219 32.653 20.6091 30.7374C19.8825 29.3613 18.8256 28.0292 17.1522 27.6989C15.2586 27.3136 13.5192 29.02 12.6605 31.2439C11.0641 35.3833 11.3394 39.4567 12.8146 43.464C13.4531 45.2145 14.2568 46.998 15.8752 48.22C17.5045 49.464 19.4752 49.2439 20.6752 47.5925L20.8953 47.3172C21.1155 47.031 21.3357 46.7558 21.4458 46.4365C21.677 45.798 22.0403 45.2035 22.6898 45.2916C23.4385 45.4016 23.5706 46.2053 23.6476 46.8328C24.3306 52.6001 25.1381 58.3519 26.0696 64.0842L26.7192 68.3558C27.0054 70.2383 27.3357 72.9466 27.1155 74.0916C27.1013 74.1718 27.0903 74.2526 27.0825 74.3338C27.0385 74.642 27.0164 74.8842 26.6201 74.9393C26.0807 75.0273 25.8495 74.7191 25.7724 74.2347C25.5192 72.3631 25.4421 71.6365 25.332 68.7741C25.233 65.9998 24.7155 63.2695 24.1871 60.5283L23.6366 57.5558C23.0641 54.165 22.5027 50.7301 22.4476 46.8769L22.2274 47.2072C21.3907 48.4512 20.7192 49.464 19.5302 49.8494C18.6476 50.1875 17.6804 50.2365 16.7681 49.9891C15.8559 49.7418 15.0459 49.2109 14.455 48.4732C12.9036 46.7211 11.8139 44.6096 11.2843 42.3301C10.3596 38.587 10.1944 34.9429 11.3834 31.2549C11.9559 29.4824 13.9926 26.3338 16.0293 26.631V26.62ZM19.8385 40.6567C20.3229 41.009 20.7632 41.3172 21.1596 40.0622C21.0385 35.4163 19.5412 32.4439 17.2183 32.3228C18.4513 33.9301 19.6403 35.4934 19.7504 37.6622C19.2923 37.4283 18.8904 37.0977 18.5724 36.6934C18.3522 36.4512 18.132 36.209 17.8568 36.0328L17.5265 35.7686C16.9981 35.3723 16.4586 34.9539 15.5669 35.2732C15.9852 35.9117 16.5577 36.3741 17.1412 36.8145C17.8018 37.3319 18.4623 37.8383 18.8586 38.631C17.6917 39.4787 17.1852 40.5796 17.7907 41.9228C18.3192 43.0787 19.1008 44.0365 20.6421 44.1026C20.5761 43.409 20.1247 42.9026 19.6733 42.4072C19.1229 41.8127 18.6054 41.2402 18.8476 40.3594C19.1999 40.1943 19.5302 40.4365 19.8385 40.6567Z" fill="black"/>
<path d="M116.037 144.473L-28.0732 144.771C-28.0732 144.771 -25.2329 123.963 -21.8861 118.822C-20.0916 116.07 -23.0531 113.868 -23.6916 111.083C-24.3301 108.308 -24.9907 104.708 -24.8476 103.662C-24.7154 102.616 -25.0017 100.437 -25.3209 98.8954C-25.6512 97.3541 -25.343 95.7798 -26.0916 94.4367C-26.8622 93.1046 -26.9723 91.6844 -26.0916 91.0568C-25.2109 90.4183 11.4717 77.4605 11.4717 77.4605L12.6057 75.0825C12.6057 75.0825 17.78 71.2513 20.5543 70.6018C23.3286 69.9523 25.7396 69.5339 25.7396 69.5339C25.7396 69.5339 25.1671 72.2091 25.5855 73.5633C26.0258 74.9284 35.824 81.1486 42.6167 80.5871C50.5433 79.9266 57.9635 75.611 58.558 73.9046C59.1525 72.1871 58.1946 71.8128 57.8313 70.4036C57.457 68.9945 58.3488 68.477 59.9561 69.3578C61.5524 70.2385 83.2185 81.5669 87.9194 83.7137C92.6093 85.8715 110.224 91.3541 110.224 91.3541C110.224 91.3541 113.549 92.3229 113.163 93.2477C112.327 95.2183 110.51 93.3578 110.51 98.7082C110.51 102.011 107.725 112.536 107.725 112.536C107.725 112.536 112.085 126.154 112.811 128.851C113.549 131.549 116.037 144.484 116.037 144.484V144.473Z" fill="black"/>
<path fill-rule="evenodd" clip-rule="evenodd" d="M16.6458 144.77C16.3596 138.473 16.0954 132.187 16.1614 125.879C16.2495 118.414 16.2385 110.928 16.0844 103.464C16.0623 102.517 16.0844 101.57 16.0954 100.635C16.1284 98.8181 16.1504 97.0016 15.9412 95.1851C15.9192 95.031 15.9192 94.8768 15.9192 94.7117C15.9192 94.3044 15.9192 93.875 15.622 93.4236L14.9284 93.7539C14.0477 94.1943 13.1669 94.6457 12.088 94.4805C10.811 94.2713 10.1724 93.7759 10.2605 92.4658C10.3663 91.0065 10.5316 89.5521 10.7559 88.1062C10.9761 86.719 11.0422 85.3209 11.1082 83.9007C11.1963 82.2273 11.2844 80.5209 11.6036 78.7924C9.58895 79.3429 7.68436 79.8934 5.87886 80.7521C3.4128 81.9301 0.748581 82.5356 -1.89362 83.1411L-2.48812 83.2732C-5.24041 83.8897 -7.93766 84.7044 -10.5688 85.7172C-11.5377 86.0915 -12.5285 86.4218 -13.5193 86.7521C-15.0824 87.237 -16.6154 87.8142 -18.1101 88.4805C-20.3999 89.5761 -22.6508 90.7512 -24.8588 92.0034C-25.6844 92.4658 -25.8166 93.2255 -25.0789 93.9851C-24.736 94.3169 -24.5003 94.7438 -24.4022 95.2108C-24.3041 95.6778 -24.3481 96.1635 -24.5285 96.6053C-24.6357 96.9404 -24.6734 97.2939 -24.6393 97.6441C-24.6053 97.9942 -24.5001 98.3338 -24.3303 98.642C-23.934 99.6184 -23.7719 100.674 -23.8569 101.725C-23.8569 102.198 -23.8569 102.671 -23.8239 103.123C-23.3878 107.354 -22.0836 111.451 -19.9927 115.156C-19.1744 116.746 -18.4394 118.377 -17.7909 120.044C-17.2404 121.343 -16.712 122.642 -16.0955 123.897C-15.8753 124.337 -14.7083 127.2 -13.3542 130.712C-13.2441 131.02 -13.3982 131.504 -13.5633 132C-13.7285 132.506 -13.8936 133.024 -13.7725 133.343C-13.6404 133.673 -13.2661 133.816 -12.8698 133.97C-12.5175 134.081 -12.1652 134.224 -11.923 134.488C-10.5799 136.007 -10.1945 137.13 -9.68812 138.638L-9.6661 138.682C-8.84041 141.115 -8.73032 143.857 -8.71931 144.627C-9.23598 144.751 -9.77369 144.759 -10.2936 144.649C-10.0734 143.075 -10.4037 141.644 -10.745 140.213C-10.8551 139.706 -10.9872 139.2 -11.0753 138.682C-11.3835 136.998 -12.1211 135.776 -13.7725 135.192C-14.9285 134.796 -15.2918 134.07 -15.1707 132.792L-15.0606 131.967C-14.9065 130.877 -14.7303 129.754 -15.3909 128.774C-17.0973 126.242 -18.3193 123.457 -19.5633 120.627L-20.312 118.932L-20.4661 119.174C-20.7498 119.56 -20.9725 119.987 -21.1266 120.44L-22.0514 123.633C-23.3175 128.058 -24.5945 132.473 -25.5413 136.976C-26.0918 139.563 -26.4111 142.15 -26.6202 144.77H-28.2166C-28.6019 143.504 -28.3266 142.293 -28.0514 141.082C-27.9546 140.678 -27.8701 140.27 -27.7982 139.86C-27.0826 135.413 -25.9377 131.086 -24.7927 126.748L-24.7377 126.517C-23.89 123.314 -22.723 120.264 -21.49 117.214C-21.2367 116.598 -21.3578 116.202 -21.7982 115.706C-23.4716 113.78 -24.0331 111.347 -24.4184 108.925L-24.6166 107.736C-25.0569 105.148 -25.4863 102.561 -25.2771 99.919C-26.0147 99.0603 -26.0808 98.0034 -26.1358 96.9466C-26.2019 95.8456 -26.2679 94.7447 -27.0936 93.831C-27.7982 93.0603 -26.8184 91.0567 -25.4422 90.286C-21.7872 88.2493 -18.0881 86.3227 -14.0477 85.1337C-12.1572 84.5593 -10.2978 83.8868 -8.47711 83.119C-6.61656 82.3484 -4.67894 81.9301 -2.74133 81.4897C-1.5083 81.2145 -0.28628 80.9392 0.913719 80.5869C2.41097 80.1466 3.85317 79.5961 5.31739 79.0457C7.14659 78.2952 9.02199 77.6627 10.9321 77.1521C11.7027 76.9649 12.1761 76.4805 12.1871 75.6548C12.1981 74.8071 12.6495 74.3007 13.299 73.8163C15.7761 71.9557 18.6605 71.064 21.5339 70.1612L21.9082 70.0512C22.3706 69.897 22.8 69.6989 23.2293 69.5007C23.9332 69.1194 24.6961 68.8589 25.4862 68.7301C25.8495 68.664 26.2018 68.5979 26.6091 68.7301C26.8293 69.4567 26.389 69.82 25.8605 70.0401L24.1651 70.7337C22.2726 71.5527 20.3522 72.3054 18.4073 72.9906C17.5486 73.2879 16.789 73.7612 16.0293 74.2126C15.3908 74.609 14.7523 74.9943 14.0477 75.2805C13.7945 75.3906 13.5853 75.897 13.5412 76.2383C13.1779 79.464 12.8477 82.6897 12.5174 85.9264L12.3633 87.3796L12.2091 88.9319C12.1211 89.8787 12.022 90.8034 11.9119 91.7502C11.9119 91.8383 11.8899 91.9154 11.8678 92.0034C11.8128 92.3337 11.7578 92.675 12.066 92.9392C12.3963 93.2034 12.6935 93.0493 12.9908 92.8842L13.233 92.7741C16.3486 91.42 18.5614 89.009 20.7743 86.609C21.2697 86.0585 21.7651 85.508 22.2715 84.9906C23.8899 83.2952 25.233 82.9099 27.3027 83.9227C27.9302 84.22 28.5027 84.4291 29.2513 84.1539C28.855 83.3392 28.4256 82.5466 27.9963 81.7539C27.0715 80.0585 26.1688 78.3851 25.5523 76.5686C25.0018 74.9612 25.1669 73.3099 25.3211 71.6805L25.3541 71.3502C25.4091 70.7337 25.8275 70.2273 26.6091 70.1723C27.2587 70.8108 27.2697 71.8567 27.2697 72.4842C27.2477 75.2365 29.2623 76.1502 31.0899 76.9759L31.1449 77.009C36.6825 79.5301 42.5614 79.7612 48.4734 78.8585C51.7653 78.4148 54.8466 76.9874 57.3137 74.7631C58.5688 73.6181 58.4146 72.242 57.8091 70.9869C57.3137 69.9961 57.644 69.3576 58.2165 68.719C58.7339 68.1466 59.3504 68.3888 59.9229 68.609L60.1761 68.719C63.5669 69.9301 66.6715 71.7135 69.7981 73.497L70.3486 73.8273C71.8288 74.6389 73.346 75.381 74.8954 76.0512C76.3045 76.6897 77.7137 77.3392 79.0789 78.0879C82.888 80.1796 86.7963 82.0952 90.7156 83.9888C92.7523 84.9796 94.91 85.7172 97.0678 86.4658L98.8623 87.1044C100.393 87.6548 101.934 88.1612 103.464 88.6787C104.785 89.119 106.106 89.5594 107.405 90.0218C108 90.242 108.616 90.264 109.233 90.297C109.883 90.3301 110.532 90.3631 111.16 90.6053L111.655 90.7924C112.426 91.0677 113.174 91.3429 113.725 92.0255C114.561 93.0713 114.528 93.9411 113.394 94.6346C112.051 95.4383 111.325 96.3411 111.919 97.9594C112.095 98.4438 111.886 98.9502 111.699 99.4236L111.644 99.5557L111.622 99.6108C110.521 102.363 109.772 108.374 109.574 109.893L109.541 110.202C109.123 113.174 109.849 115.266 110.664 117.655C110.872 118.254 111.07 118.855 111.259 119.46C112.558 123.688 113.813 127.937 114.958 132.209C115.914 135.803 116.7 139.44 117.314 143.108C117.38 143.482 117.358 143.879 117.336 144.319V144.649C116.893 144.769 116.428 144.776 115.982 144.671C114.947 136.976 112.712 129.677 110.477 122.389C109.739 119.984 109.024 117.573 108.33 115.156C107.649 116.268 107.095 117.454 106.679 118.69C105.559 122.363 103.646 125.745 101.075 128.598L100.943 128.741C100.503 129.225 99.9743 129.787 100.062 130.183C100.36 131.614 99.633 132.451 98.8734 133.332L98.5211 133.75C98.0151 134.387 97.6883 135.147 97.5743 135.952C97.4312 136.855 97.266 137.758 97.1009 138.66C96.6844 140.675 96.4158 142.717 96.2972 144.77H94.7229C94.9431 144.099 94.9871 143.317 95.0532 142.326C95.149 139.82 95.5861 137.339 96.3522 134.95C96.4293 134.51 96.5394 133.86 97.5633 132.803C98.499 131.857 98.488 130.734 98.477 130.029C98.477 129.765 98.477 129.567 98.5211 129.457C99.1376 127.893 101.317 125.108 102.385 123.732C102.716 123.325 102.936 123.038 102.98 122.95C105.523 118.767 107.317 114.154 108.264 109.343C108.572 107.835 108.815 106.304 109.068 104.763C109.304 103.224 109.568 101.69 109.861 100.161C110.136 98.697 110.411 97.2438 110.477 95.7356C110.51 94.9209 111.204 94.5246 111.853 94.1392L111.996 94.0512L112.051 94.0291L112.095 93.9961C112.448 93.7759 112.833 93.5557 112.778 93.0823C112.723 92.642 112.349 92.5319 111.974 92.4218L111.831 92.3778C110.708 92.0475 109.552 91.8053 108.407 91.5631C106.93 91.2885 105.474 90.9133 104.048 90.4401L101.813 89.6695C100.283 89.1301 98.7633 88.6126 97.266 88.0181C94.375 86.9201 91.5152 85.7416 88.6899 84.4842C85.4452 82.9863 82.2508 81.3817 79.1119 79.6732C77.0758 78.5252 74.9383 77.567 72.7266 76.8108C74.8844 80.631 75.2697 84.8255 75.666 89.009C75.7651 90.0768 75.8642 91.1337 75.9963 92.1796C76.1614 93.5778 75.666 94.7668 74.499 95.4823C73.1449 96.297 71.7137 96.1649 70.3596 95.3282L70.0293 95.086C69.7871 94.8658 69.5229 94.6457 69.1156 94.6677C69.0715 100.128 69.1156 105.589 69.1376 111.049C69.2036 122.213 69.2697 133.398 68.7743 144.627C68.1734 144.76 67.552 144.772 66.9467 144.66C67.0018 142.414 67.1119 140.191 67.211 137.978C67.3211 135.402 67.4422 132.836 67.5082 130.271C67.5963 125.879 67.5743 121.497 67.5522 117.104L67.5302 114.638C67.5082 108.803 67.4422 102.958 67.3871 97.1117L67.3651 94.9209C67.3651 94.7007 67.3761 94.4805 67.4091 94.2713C67.4642 93.6658 67.5302 93.0603 67.0458 92.4879C66.2972 91.6071 65.5816 90.7154 64.866 89.8126L63.4128 88.0291C62.5741 87.0631 61.5669 86.2574 60.4403 85.6512C59.2954 84.9906 58.8 85.3209 58.5357 86.5649C58.3706 87.3025 58.4477 88.0181 58.5357 88.7337C58.5798 89.1411 58.6238 89.5484 58.6238 89.9447C58.6678 98.8401 58.4477 107.725 58.1504 116.609C57.9853 121.563 57.8862 126.55 57.8091 131.515C57.7651 134.125 57.644 136.734 57.5339 139.332C57.4458 141.148 57.3688 142.965 57.3137 144.792C56.8734 144.792 56.2238 144.737 55.7944 144.649C55.8825 142.106 56.0146 139.354 56.1247 136.921C56.2481 134.776 56.3399 132.629 56.4 130.481C56.411 126.682 56.5651 119.493 56.7082 112.602C56.8293 106.8 56.9504 101.218 56.9834 98.0255C57.0154 94.1466 57.0154 90.2676 56.9834 86.3888C55.7284 86.1906 54.6715 86.7961 53.7247 87.6768C52.8418 88.4693 51.7618 89.0093 50.5981 89.2401C46.1504 90.231 41.6477 90.5282 37.1229 89.7906C34.7779 89.4163 32.5431 88.7337 30.7486 87.0383C30.4183 86.708 30.033 86.4218 29.5816 86.0915C29.3336 85.9071 29.0877 85.72 28.844 85.5301C28.844 86.0475 28.9541 87.809 29.1082 90.0108C29.3504 93.6768 29.6807 98.5869 29.6917 101.097C29.6917 103.101 29.7908 105.104 29.8789 107.108L29.9779 109.2C29.9779 109.464 30.5284 136.833 30.5284 142.8V143.185C30.5174 143.714 30.4954 144.253 30.7156 144.77C30.099 144.781 29.5045 144.748 28.888 144.66C29.0862 142.69 28.822 130.194 28.6238 121.255C28.5357 117.093 28.4697 113.703 28.4697 112.503C28.4697 107.989 28.2275 103.464 27.9853 98.9502C27.7871 94.9979 27.5779 91.0567 27.5229 87.1044C27.5119 85.9264 27.2036 85.3209 26.0587 84.9576C24.8917 84.5723 24.1101 85.0457 23.4715 85.8383C22.4036 87.1594 21.2367 88.3704 19.9596 89.4934C19.1404 90.1427 18.4819 90.9722 18.0351 91.9173C17.5883 92.8624 17.3653 93.8977 17.3834 94.9429C17.2734 100.943 17.4935 106.921 17.7027 112.91C17.9119 118.767 18.1101 124.624 18.022 130.481C17.9669 133.75 18.044 137.031 18.1321 140.301L18.2201 144.77H16.6458ZM73.1229 82.0842C72.6715 79.508 71.6477 77.1301 69.666 75.4677C67.0458 73.2658 63.9302 71.8897 60.7816 70.5135L59.1523 69.7869C59.6197 70.4164 59.9296 71.1487 60.056 71.9225C60.1824 72.6963 60.1217 73.4891 59.8789 74.2346C59.4113 75.6711 58.7243 77.0266 57.8422 78.253C56.444 80.1025 55.6513 82.1833 56.2238 84.6934C57.8422 83.7906 59.3504 83.2622 61.1669 84.1869C63.0674 85.2206 64.694 86.6925 65.9119 88.4805C67.4091 90.4842 68.9174 92.4438 70.9981 93.886C71.8348 94.4695 72.7266 94.4365 73.5633 94.1062C74.411 93.7649 74.4 92.9172 74.3119 92.1356C74.2018 91.1447 74.1467 90.1429 74.0917 89.1301C73.9376 86.8181 73.7945 84.4842 73.1229 82.0842ZM29.3284 81.2035C29.0422 80.697 28.7669 80.1796 28.5027 79.6401C28.0556 78.638 27.6079 77.6362 27.1596 76.6346C36.4073 82.0622 45.8422 82.6016 55.7504 78.0989L55.3981 78.9135C55.0018 79.8163 54.6275 80.675 54.4403 81.6218L54.3743 81.9521C54.2752 82.3924 54.1871 82.8328 54.2201 83.2952C54.3522 85.497 53.7357 86.3447 51.644 87.1154C48.1651 88.3924 44.5761 88.5466 40.9321 88.3264C40.038 88.2667 39.1414 88.252 38.2458 88.2823C36.077 88.3594 34.2935 87.3796 32.5211 86.3888L31.8055 86.0035C31.4021 85.7503 31.1046 85.359 30.9688 84.9025C30.6055 83.5814 29.9669 82.3924 29.3174 81.2145L29.3284 81.2035Z" fill="white"/>
<path d="M15.7209 10.0402C18.0989 4.8108 21.8861 1.12272 26.8402 -1.49746C29.5705 -2.92866 32.3228 -4.40388 35.3503 -5.0204C39.7099 -5.91214 44.0475 -5.87911 48.3081 -4.1837C52.5136 -2.53232 56.8182 -3.08278 61.1448 -4.02957C66.6824 -5.24058 71.6475 -4.17269 75.8971 -0.0882878C79.6402 3.51171 81.5228 7.70621 81.3797 12.8805C81.3026 15.6108 80.4549 16.2383 77.8347 15.2035C77.6035 16.8218 77.6586 18.4622 77.02 19.9924C76.379 21.6931 75.552 23.3176 74.554 24.8365C73.8714 25.7943 73.9815 27.0493 73.4641 28.0732C72.5833 27.9851 72.7264 27.3686 72.7375 26.8952C72.8911 23.9457 72.6878 20.9885 72.132 18.0879C71.4934 15.2475 70.3375 12.6273 67.6182 11.1521C66.9631 10.823 66.243 10.6434 65.5101 10.6262C64.7771 10.6091 64.0495 10.7549 63.3797 11.053C61.1778 12.0438 59.3173 11.5484 57.3466 10.5796C54.0879 8.98327 50.7631 9.09336 47.4494 10.4255C43.9264 11.8347 41.8898 14.7411 40.2604 17.9447C39.787 18.8695 39.809 20.0365 39.5778 21.0824C39.4567 21.6328 39.3356 22.2603 38.642 22.3264C38.0145 22.3814 37.4971 22.0732 37.0567 21.5888C35.8457 20.2677 35.7356 18.5392 35.2732 16.8218C34.5026 18.4732 34.5246 20.1025 34.5466 21.7209C34.5466 22.3814 34.5907 23.042 34.5466 23.7025C34.4806 24.7154 34.3154 25.7943 33.0494 25.9044C31.9154 25.9924 31.1668 25.2218 30.7154 24.242C30.4182 23.5594 30.209 22.8438 29.9008 21.9741C29.1631 22.8108 29.1852 23.7135 28.976 24.5282C28.4916 26.3668 28.1173 28.2493 27.2145 29.9668C26.9283 30.5502 26.7742 31.1447 25.8934 31.1778C24.9797 31.2108 24.8475 30.5943 24.5943 29.9998C24.5063 29.7906 24.3521 29.6145 24.0659 29.1961C23.5375 31.8383 24.3081 34.3704 23.4714 36.7704C22.8329 36.5502 22.8879 36.1209 22.8659 35.7796C22.7888 33.5998 21.9411 31.6402 20.8402 29.8787C19.7503 28.1172 18.3631 26.5209 15.82 26.8402C15.0274 26.9392 14.532 27.5888 13.6953 27.6108C12.165 21.5227 13.0347 15.7209 15.7209 10.0402Z" fill="black"/>
<path fill-rule="evenodd" clip-rule="evenodd" d="M54.6496 55.8381C52.1175 55.5408 49.4533 55.2326 47.3505 57.4454C46.9101 57.8307 46.6349 58.3812 46.6019 58.9647C44.5982 58.4582 43.0789 55.5298 43.9927 53.8234C44.7193 52.4582 46.1725 52.216 47.5707 52.0289C50.7634 51.5885 53.8019 52.5793 56.2349 54.2417C57.6881 55.2436 58.8441 55.1995 60.1982 55.1445H60.4845L60.5725 55.1335C61.3432 55.1005 62.1138 55.0674 62.5872 55.9041C63.0936 56.8289 63.0496 57.7427 62.4221 58.5463C61.7505 59.405 61.0349 60.3078 59.6698 60.539C59.2294 58.0949 57.9083 56.1904 55.4423 55.9261L54.6496 55.8381ZM52.4808 59.5482C52.3156 59.361 52.1505 59.1738 51.9634 58.9977C51.578 58.5573 51.1817 58.15 50.8734 57.6766C50.4441 56.983 49.9707 57.0821 49.4643 57.3793C48.6936 57.8417 47.89 58.3702 48.0441 59.4271C48.1542 60.0876 48.6386 60.0436 49.09 60.0105C49.2001 60.0105 49.3101 59.9885 49.4202 59.9995H51.3138C53.2955 59.9555 55.2661 59.9225 57.1487 60.7702C57.3799 60.8803 57.6441 60.8142 57.8092 60.6271C57.6661 58.5683 54.7267 56.6858 52.69 57.3683C52.69 57.5885 52.778 57.8417 52.8771 58.0729C53.0863 58.5793 53.2845 59.0858 52.4808 59.5482Z" fill="white"/>
<path fill-rule="evenodd" clip-rule="evenodd" d="M42.2864 54.0546C42.6057 51.6546 45.8094 50.5097 48.3084 50.4767C51.7763 50.4216 55.024 51.4785 57.9635 53.3501C58.5139 53.7244 59.1745 53.8455 59.813 53.6803C61.9488 53.2069 63.424 53.7244 64.0075 54.9794C65.1525 57.4014 63.9525 59.8014 62.7305 60.8363C60.4736 62.7079 57.9084 62.6528 55.3213 61.8712C54.0868 61.486 52.7834 61.3734 51.5011 61.5409C47.9672 61.9812 44.9837 60.8913 43.0681 57.7978C42.3696 56.6832 42.0961 55.3544 42.2974 54.0546H42.2864ZM47.3506 57.4455C49.4534 55.2436 52.1176 55.5409 54.6497 55.8381L55.4424 55.9262C57.9084 56.1904 59.2405 58.095 59.6809 60.5501C61.035 60.2968 61.7506 59.4051 62.4332 58.5354C63.0497 57.7427 63.0938 56.829 62.5873 55.9152C62.1249 55.0675 61.3433 55.1005 60.5727 55.1335H60.4846L60.2094 55.1445C58.8442 55.1996 57.6883 55.2546 56.246 54.2418C53.7289 52.4446 50.63 51.6551 47.5598 52.029C46.1616 52.2161 44.7084 52.4583 43.9818 53.8234C43.0791 55.5299 44.5873 58.4583 46.591 58.9647C46.624 58.3812 46.8883 57.8308 47.3396 57.4455H47.3506ZM52.4809 59.5372L51.9635 58.9868C51.5782 58.5684 51.1818 58.1501 50.8736 57.6656C50.4442 56.9831 49.9708 57.0822 49.4644 57.3794C48.6938 57.8418 47.8901 58.3702 48.0442 59.4271C48.1543 60.0877 48.6387 60.0436 49.0901 60.0106C49.2002 60.0106 49.3103 59.9886 49.4204 59.9996H51.3139C53.2956 59.9556 55.2662 59.9225 57.1488 60.7702C57.38 60.8803 57.6442 60.8143 57.8094 60.6271C57.6662 58.5684 54.7268 56.6858 52.6901 57.3684C52.6901 57.5886 52.7782 57.8418 52.8772 58.073C53.0864 58.5794 53.2846 59.0858 52.4809 59.5482V59.5372Z" fill="black"/>
<path d="M42.8368 35.2952C43.3872 33.9741 43.8276 32.0585 45.49 32.8181C47.7689 33.853 47.0203 36.1979 46.5579 38.0365C46.3817 38.7301 44.9615 39.7869 44.5432 39.6108C42.7487 38.8622 42.4294 37.2218 42.8368 35.2952ZM67.8166 39.3466C66.8698 40.1723 65.945 40.1833 65.3726 39.1814C64.3817 37.42 64.4258 35.5704 65.7359 33.9851C66.0111 33.6548 67.2551 33.5888 67.5304 33.875C69.0716 35.5264 69.1377 37.3759 67.8166 39.3466Z" fill="black"/>
<path d="M51.655 29.086C51.0385 30.9355 50.9284 30.7814 49.1229 30.363C46.2385 29.7025 43.3211 28.2493 40.2825 29.8896C40.0624 30.0107 39.7321 29.9997 39.4458 29.9777C39.0495 29.9557 38.5431 30.1208 38.3339 29.6144C38.1027 29.064 38.499 28.7007 38.9174 28.4805C41.0862 27.3796 43.0458 25.8052 45.7871 26.0915C47.1963 26.2346 48.6495 25.7832 50.1137 25.8273C52.1835 25.9043 52.5798 26.4548 51.8752 28.4585L51.655 29.097V29.086ZM70.0954 26.73C71.1523 27.4566 71.4715 28.5796 72.1101 29.4823C72.2298 29.6321 72.2893 29.8211 72.2771 30.0125C72.2649 30.2039 72.1818 30.3838 72.044 30.5172C71.7798 30.8144 71.4495 30.8254 71.1523 30.6493C69.0495 29.4383 66.8697 29.9447 64.7669 30.5172C63.644 30.8144 63.1596 30.4291 62.8734 29.5043C62.6862 28.8768 62.5541 28.2383 62.477 27.5887C62.3339 26.5098 63.2367 26.2786 63.9082 26.2456C65.9449 26.1465 68.0257 25.7502 70.0954 26.73Z" fill="black"/>
</g>
</g>
<path d="M48 2C73.4051 2 94 22.5949 94 48C94 73.4051 73.4051 94 48 94C22.5949 94 2 73.4051 2 48C2 22.5949 22.5949 2 48 2Z" stroke="#E5E5E5" stroke-width="4"/>
<g filter="url(#filter0_dd_69_1892)">
<path d="M67.5 84C67.5 75.1634 74.6634 68 83.5 68C92.3366 68 99.5 75.1634 99.5 84C99.5 92.8366 92.3366 100 83.5 100C74.6634 100 67.5 92.8366 67.5 84Z" fill="black"/>
<path d="M90.5 91H76.5V77H90.5V91Z" stroke="#E5E7EB"/>
<g clip-path="url(#clip1_69_1892)">
<path d="M80.577 78.7719L80.2926 79.625H78.25C77.2848 79.625 76.5 80.4098 76.5 81.375V88.375C76.5 89.3402 77.2848 90.125 78.25 90.125H88.75C89.7152 90.125 90.5 89.3402 90.5 88.375V81.375C90.5 80.4098 89.7152 79.625 88.75 79.625H86.7074L86.423 78.7719C86.2453 78.2359 85.7449 77.875 85.1789 77.875H81.8211C81.2551 77.875 80.7547 78.2359 80.577 78.7719ZM83.5 82.25C84.1962 82.25 84.8639 82.5266 85.3562 83.0188C85.8484 83.5111 86.125 84.1788 86.125 84.875C86.125 85.5712 85.8484 86.2389 85.3562 86.7312C84.8639 87.2234 84.1962 87.5 83.5 87.5C82.8038 87.5 82.1361 87.2234 81.6438 86.7312C81.1516 86.2389 80.875 85.5712 80.875 84.875C80.875 84.1788 81.1516 83.5111 81.6438 83.0188C82.1361 82.5266 82.8038 82.25 83.5 82.25Z" fill="white"/>
</g>
</g>
<defs>
<filter id="filter0_dd_69_1892" x="52.5" y="63" width="62" height="62" filterUnits="userSpaceOnUse" color-interpolation-filters="sRGB">
<feFlood flood-opacity="0" result="BackgroundImageFix"/>
<feColorMatrix in="SourceAlpha" type="matrix" values="0 0 0 0 0 0 0 0 0 0 0 0 0 0 0 0 0 0 127 0" result="hardAlpha"/>
<feOffset dy="10"/>
<feGaussianBlur stdDeviation="7.5"/>
<feColorMatrix type="matrix" values="0 0 0 0 0 0 0 0 0 0 0 0 0 0 0 0 0 0 0.1 0"/>
<feBlend mode="normal" in2="BackgroundImageFix" result="effect1_dropShadow_69_1892"/>
<feColorMatrix in="SourceAlpha" type="matrix" values="0 0 0 0 0 0 0 0 0 0 0 0 0 0 0 0 0 0 127 0" result="hardAlpha"/>
<feOffset dy="4"/>
<feGaussianBlur stdDeviation="3"/>
<feColorMatrix type="matrix" values="0 0 0 0 0 0 0 0 0 0 0 0 0 0 0 0 0 0 0.1 0"/>
<feBlend mode="normal" in2="effect1_dropShadow_69_1892" result="effect2_dropShadow_69_1892"/>
<feBlend mode="normal" in="SourceGraphic" in2="effect2_dropShadow_69_1892" result="shape"/>
</filter>
<clipPath id="clip0_69_1892">
<path d="M0 48C0 21.4903 21.4903 0 48 0C74.5097 0 96 21.4903 96 48C96 74.5097 74.5097 96 48 96C21.4903 96 0 74.5097 0 48Z" fill="white"/>
</clipPath>
<clipPath id="clip1_69_1892">
<path d="M76.5 77H90.5V91H76.5V77Z" fill="white"/>
</clipPath>
</defs>
</svg>
